<?xml version="1.0" encoding="UTF-8"?>
<svg version="1.1" xmlns="http://www.w3.org/2000/svg" width="1000" height="276">
<path d="M0 0 C17.61182438 14.26656165 25.04671984 33.78064929 28.09765625 55.69921875 C28.19264404 55.15620117 28.28763184 54.61318359 28.38549805 54.05371094 C32.52684912 30.82282053 40.83935712 12.40925715 60.1171875 -2.35546875 C78.75844448 -14.52237042 100.29988821 -19.44891004 122.34375 -15.67578125 C143.93106789 -10.55878738 161.98092087 2.29405108 174.09765625 20.69921875 C185.69031528 39.83630667 187.12584243 62.51926842 182.16796875 83.8203125 C178.38713014 98.80376228 170.44249703 111.1907651 159.09765625 121.69921875 C158.43765625 121.69921875 157.77765625 121.69921875 157.09765625 121.69921875 C157.09765625 122.35921875 157.09765625 123.01921875 157.09765625 123.69921875 C154.95991905 125.2349495 152.85401327 126.60631476 150.59765625 127.94921875 C149.92710205 128.34890869 149.25654785 128.74859863 148.56567383 129.16040039 C129.42585591 140.20559168 107.91354663 144.05344648 86.31787109 138.6784668 C64.12745079 132.43920211 47.67663165 118.24218915 36.09765625 98.69921875 C31.06327206 89.6401715 29.92305718 78.78001006 28.09765625 68.69921875 C27.95070313 69.59640625 27.80375 70.49359375 27.65234375 71.41796875 C25.00277479 86.1580995 20.92699165 99.09242667 11.09765625 110.69921875 C9.88916016 112.13201172 9.88916016 112.13201172 8.65625 113.59375 C4.30246192 118.59047308 4.30246192 118.59047308 2.09765625 120.69921875 C1.43765625 120.69921875 0.77765625 120.69921875 0.09765625 120.69921875 C0.09765625 121.35921875 0.09765625 122.01921875 0.09765625 122.69921875 C-2.04008095 124.2349495 -4.14598673 125.60631476 -6.40234375 126.94921875 C-7.07289795 127.34890869 -7.74345215 127.74859863 -8.43432617 128.16040039 C-27.57414409 139.20559168 -49.08645337 143.05344648 -70.68212891 137.6784668 C-92.87254921 131.43920211 -109.32336835 117.24218915 -120.90234375 97.69921875 C-131.50987728 78.61165135 -130.24879345 55.04276511 -124.90234375 34.69921875 C-119.46110301 17.41858867 -106.04461236 1.08892881 -90.015625 -7.43359375 C-59.55919564 -22.82010588 -27.52501733 -20.44846864 0 0 Z " fill="#A33689" transform="translate(628.90234375,33.30078125)"/>
<path d="M0 0 C17.37915664 14.07808778 24.64751104 33.16367492 28.09765625 54.69921875 C28.19264404 54.15620117 28.28763184 53.61318359 28.38549805 53.05371094 C32.52684912 29.82282053 40.83935712 11.40925715 60.1171875 -3.35546875 C78.75844448 -15.52237042 100.29988821 -20.44891004 122.34375 -16.67578125 C143.93106789 -11.55878738 161.98092087 1.29405108 174.09765625 19.69921875 C185.69031528 38.83630667 187.12584243 61.51926842 182.16796875 82.8203125 C178.38713014 97.80376228 170.44249703 110.1907651 159.09765625 120.69921875 C158.43765625 120.69921875 157.77765625 120.69921875 157.09765625 120.69921875 C157.09765625 121.35921875 157.09765625 122.01921875 157.09765625 122.69921875 C154.95991905 124.2349495 152.85401327 125.60631476 150.59765625 126.94921875 C149.92710205 127.34890869 149.25654785 127.74859863 148.56567383 128.16040039 C129.42585591 139.20559168 107.91354663 143.05344648 86.31787109 137.6784668 C64.12745079 131.43920211 47.67663165 117.24218915 36.09765625 97.69921875 C31.06327206 88.6401715 29.92305718 77.78001006 28.09765625 67.69921875 C27.95070313 68.66859375 27.80375 69.63796875 27.65234375 70.63671875 C25.20257358 85.70536702 21.11438 98.87115255 11.09765625 110.69921875 C9.88916016 112.13201172 9.88916016 112.13201172 8.65625 113.59375 C4.30246192 118.59047308 4.30246192 118.59047308 2.09765625 120.69921875 C1.43765625 120.69921875 0.77765625 120.69921875 0.09765625 120.69921875 C0.09765625 121.35921875 0.09765625 122.01921875 0.09765625 122.69921875 C-2.04008095 124.2349495 -4.14598673 125.60631476 -6.40234375 126.94921875 C-7.07289795 127.34890869 -7.74345215 127.74859863 -8.43432617 128.16040039 C-27.57414409 139.20559168 -49.08645337 143.05344648 -70.68212891 137.6784668 C-92.87254921 131.43920211 -109.32336835 117.24218915 -120.90234375 97.69921875 C-131.50987728 78.61165135 -130.24879345 55.04276511 -124.90234375 34.69921875 C-119.46110301 17.41858867 -106.04461236 1.08892881 -90.015625 -7.43359375 C-59.55919564 -22.82010588 -27.52501733 -20.44846864 0 0 Z " fill="#0E4E9B" transform="translate(309.90234375,33.30078125)"/>
<path d="M0 0 C17.68500164 14.32583932 25.74448149 34.49113191 28.09765625 56.69921875 C29.73027701 77.20901707 22.39703379 97.48920158 9.36328125 113.01171875 C7.03844926 115.68089338 4.69711007 118.29140709 2.09765625 120.69921875 C1.43765625 120.69921875 0.77765625 120.69921875 0.09765625 120.69921875 C0.09765625 121.35921875 0.09765625 122.01921875 0.09765625 122.69921875 C-2.04008095 124.2349495 -4.14598673 125.60631476 -6.40234375 126.94921875 C-7.07289795 127.34890869 -7.74345215 127.74859863 -8.43432617 128.16040039 C-27.57414409 139.20559168 -49.08645337 143.05344648 -70.68212891 137.6784668 C-92.87254921 131.43920211 -109.32336835 117.24218915 -120.90234375 97.69921875 C-131.50987728 78.61165135 -130.24879345 55.04276511 -124.90234375 34.69921875 C-119.46110301 17.41858867 -106.04461236 1.08892881 -90.015625 -7.43359375 C-59.55919564 -22.82010588 -27.52501733 -20.44846864 0 0 Z " fill="#D8A60F" transform="translate(945.90234375,34.30078125)"/>
<path d="M0 0 C17.68500164 14.32583932 25.74448149 34.49113191 28.09765625 56.69921875 C29.73027701 77.20901707 22.39703379 97.48920158 9.36328125 113.01171875 C7.03844926 115.68089338 4.69711007 118.29140709 2.09765625 120.69921875 C1.43765625 120.69921875 0.77765625 120.69921875 0.09765625 120.69921875 C0.09765625 121.35921875 0.09765625 122.01921875 0.09765625 122.69921875 C-2.04008095 124.2349495 -4.14598673 125.60631476 -6.40234375 126.94921875 C-7.07289795 127.34890869 -7.74345215 127.74859863 -8.43432617 128.16040039 C-27.57414409 139.20559168 -49.08645337 143.05344648 -70.68212891 137.6784668 C-92.87254921 131.43920211 -109.32336835 117.24218915 -120.90234375 97.69921875 C-131.50987728 78.61165135 -130.24879345 55.04276511 -124.90234375 34.69921875 C-119.46110301 17.41858867 -106.04461236 1.08892881 -90.015625 -7.43359375 C-59.55919564 -22.82010588 -27.52501733 -20.44846864 0 0 Z " fill="#01B6DD" transform="translate(628.90234375,33.30078125)"/>
<path d="M0 0 C17.68500164 14.32583932 25.74448149 34.49113191 28.09765625 56.69921875 C29.73027701 77.20901707 22.39703379 97.48920158 9.36328125 113.01171875 C7.03844926 115.68089338 4.69711007 118.29140709 2.09765625 120.69921875 C1.43765625 120.69921875 0.77765625 120.69921875 0.09765625 120.69921875 C0.09765625 121.35921875 0.09765625 122.01921875 0.09765625 122.69921875 C-2.04008095 124.2349495 -4.14598673 125.60631476 -6.40234375 126.94921875 C-7.07289795 127.34890869 -7.74345215 127.74859863 -8.43432617 128.16040039 C-27.57414409 139.20559168 -49.08645337 143.05344648 -70.68212891 137.6784668 C-92.87254921 131.43920211 -109.32336835 117.24218915 -120.90234375 97.69921875 C-131.50987728 78.61165135 -130.24879345 55.04276511 -124.90234375 34.69921875 C-119.46110301 17.41858867 -106.04461236 1.08892881 -90.015625 -7.43359375 C-59.55919564 -22.82010588 -27.52501733 -20.44846864 0 0 Z " fill="#ED1B24" transform="translate(309.90234375,33.30078125)"/>
<path d="M0 0 C17.68500164 14.32583932 25.74448149 34.49113191 28.09765625 56.69921875 C29.73027701 77.20901707 22.39703379 97.48920158 9.36328125 113.01171875 C7.03844926 115.68089338 4.69711007 118.29140709 2.09765625 120.69921875 C1.43765625 120.69921875 0.77765625 120.69921875 0.09765625 120.69921875 C0.09765625 121.35921875 0.09765625 122.01921875 0.09765625 122.69921875 C-2.04008095 124.2349495 -4.14598673 125.60631476 -6.40234375 126.94921875 C-7.07289795 127.34890869 -7.74345215 127.74859863 -8.43432617 128.16040039 C-27.57414409 139.20559168 -49.08645337 143.05344648 -70.68212891 137.6784668 C-92.87254921 131.43920211 -109.32336835 117.24218915 -120.90234375 97.69921875 C-131.50987728 78.61165135 -130.24879345 55.04276511 -124.90234375 34.69921875 C-119.46110301 17.41858867 -106.04461236 1.08892881 -90.015625 -7.43359375 C-59.55919564 -22.82010588 -27.52501733 -20.44846864 0 0 Z " fill="#D6181E" transform="translate(146.90234375,33.30078125)"/>
<path d="M0 0 C6.27 0 12.54 0 19 0 C25.75932684 27.77752181 25.75932684 27.77752181 28.875 41.25 C29.07762451 42.10996582 29.28024902 42.96993164 29.48901367 43.85595703 C29.67568604 44.67177246 29.8623584 45.48758789 30.0546875 46.328125 C30.29421143 47.36308105 30.29421143 47.36308105 30.53857422 48.41894531 C31.22460915 52.25638513 31.60147037 56.12353071 32 60 C32.13558823 59.29256149 32.27117645 58.58512299 32.41087341 57.85624695 C33.68883415 51.19037509 34.96874642 44.52488061 36.25085354 37.85980511 C36.90993232 34.43319126 37.56825483 31.00643572 38.22485352 27.5793457 C38.97968689 23.63970273 39.73780108 19.70069736 40.49609375 15.76171875 C40.73154404 14.53039719 40.96699432 13.29907562 41.20957947 12.03044128 C41.42973221 10.88948502 41.64988495 9.74852875 41.87670898 8.57299805 C42.06990219 7.567061 42.2630954 6.56112396 42.46214294 5.52470398 C43 3 43 3 44 0 C50.27 0 56.54 0 63 0 C64.29715029 3.89145086 65.35259921 7.27257916 66.12915039 11.22338867 C66.32597916 12.21429001 66.52280792 13.20519135 66.7256012 14.22612 C66.93087936 15.27943008 67.13615753 16.33274017 67.34765625 17.41796875 C67.67279457 19.05926506 67.67279457 19.05926506 68.00450134 20.73371887 C68.69417204 24.21759946 69.37867457 27.70246778 70.0625 31.1875 C70.75057318 34.68310388 71.43976872 38.17847694 72.13121033 41.67341614 C72.56071089 43.84543205 72.9881545 46.01785592 73.41334534 48.1907196 C73.70386024 49.66288689 73.70386024 49.66288689 74.00024414 51.16479492 C74.16964005 52.02828049 74.33903595 52.89176605 74.51356506 53.78141785 C74.99316906 56.15569585 74.99316906 56.15569585 76 59 C76.1959375 57.93910156 76.391875 56.87820312 76.59375 55.78515625 C79.05727148 42.83138821 82.10231758 30.04608277 85.26953125 17.25024414 C85.52776421 16.20283302 85.52776421 16.20283302 85.79121399 15.13426208 C86.26374067 13.21997074 86.73955048 11.30649066 87.21557617 9.39306641 C87.93343165 6.28794489 88.47605715 3.1436571 89 0 C94.94 0 100.88 0 107 0 C106.39731488 4.21879585 105.85366373 7.96295525 104.80078125 12.01171875 C104.56431885 12.92356934 104.32785645 13.83541992 104.08422852 14.77490234 C103.7022229 16.21663818 103.7022229 16.21663818 103.3125 17.6875 C103.0455835 18.70279785 102.77866699 19.7180957 102.50366211 20.76416016 C100.58631491 27.97995873 98.51201859 35.13659697 96.328125 42.27563477 C93.90172087 50.23016472 91.66627608 58.23489943 89.44750977 66.24951172 C87.70742972 72.52439212 85.89211188 78.76917839 84 85 C78.39 85 72.78 85 67 85 C65.78079264 81.34237791 64.73035977 78.15369155 63.97851562 74.4543457 C63.8049353 73.60939041 63.63135498 72.76443512 63.45251465 71.89387512 C63.27224731 70.99690414 63.09197998 70.09993317 62.90625 69.17578125 C62.61796326 67.76270943 62.61796326 67.76270943 62.32385254 66.3210907 C61.91875449 64.33200785 61.51542968 62.34256313 61.11376953 60.3527832 C60.50539579 57.33922784 59.89187849 54.32675751 59.27734375 51.31445312 C58.88250902 49.37245751 58.48796845 47.43040206 58.09375 45.48828125 C57.91348267 44.60143143 57.73321533 43.7145816 57.54748535 42.80085754 C56.28638787 36.54757442 55.12153496 30.27975868 54 24 C52.53142558 27.5588316 51.54478444 30.8227069 50.88671875 34.62109375 C50.59619629 36.25643066 50.59619629 36.25643066 50.29980469 37.92480469 C50.09774414 39.08399414 49.89568359 40.24318359 49.6875 41.4375 C47.91613372 51.33631156 45.93959294 61.14827811 43.61206055 70.93139648 C43.41523682 71.76356689 43.21841309 72.5957373 43.015625 73.453125 C42.84321289 74.16629883 42.67080078 74.87947266 42.49316406 75.61425781 C41.85187076 78.71659352 41.44801214 81.86391501 41 85 C35.39 85 29.78 85 24 85 C19.62053436 71.43433813 15.6526904 57.80085383 11.85253906 44.06298828 C10.5515983 39.38898977 9.21427575 34.72563044 7.875 30.0625 C5.94322658 23.31673691 4.01962114 16.56880333 2.125 9.8125 C1.90956543 9.05138916 1.69413086 8.29027832 1.47216797 7.50610352 C0 2.23154645 0 2.23154645 0 0 Z " fill="#F8F8F9" transform="translate(525,51)"/>
<path d="M0 0 C6.93 0 13.86 0 21 0 C21.52319824 1.48918945 22.04639648 2.97837891 22.58544922 4.51269531 C24.57347044 10.17060457 26.56239514 15.82819588 28.55160522 21.48568726 C29.43106727 23.98726141 30.31032073 26.48890891 31.18936157 28.9906311 C37.28997694 46.37008797 37.28997694 46.37008797 43.48828125 63.71484375 C43.7301416 64.38591156 43.97200195 65.05697937 44.22119141 65.74838257 C45.27666421 68.67427283 46.33783478 71.59789772 47.40771484 74.51855469 C47.76172363 75.49598633 48.11573242 76.47341797 48.48046875 77.48046875 C48.77848389 78.29410889 49.07649902 79.10774902 49.38354492 79.94604492 C50 82 50 82 50 85 C43.73 85 37.46 85 31 85 C28.525 77.08 28.525 77.08 26 69 C15.44 68.67 4.88 68.34 -6 68 C-6.99 71.63 -7.98 75.26 -9 79 C-9.66 80.98 -10.32 82.96 -11 85 C-17.27 85 -23.54 85 -30 85 C-27.57634982 76.60753893 -24.73714415 68.38528191 -21.81640625 60.15625 C-21.31446127 58.7372355 -20.81266874 57.31816707 -20.3110199 55.89904785 C-19.26446172 52.94012855 -18.21623046 49.98180912 -17.16674805 47.02392578 C-15.83129676 43.25970637 -14.49981804 39.49409652 -13.16957188 35.72803497 C-12.13554316 32.80188468 -11.09950807 29.87644782 -10.06287956 26.95121765 C-9.57157404 25.56414798 -9.08084224 24.17687493 -8.59073067 22.78938293 C-5.88235693 15.12613937 -3.08083154 7.52280341 0 0 Z " fill="#FCF6F6" transform="translate(250,51)"/>
<path d="M0 0 C20.46 0 40.92 0 62 0 C62 4.95 62 9.9 62 15 C47.15 15 32.3 15 17 15 C17 20.94 17 26.88 17 33 C30.53 33 44.06 33 58 33 C58 37.95 58 42.9 58 48 C44.47 48 30.94 48 17 48 C17 55.26 17 62.52 17 70 C32.51 70 48.02 70 64 70 C64 74.95 64 79.9 64 85 C42.88 85 21.76 85 0 85 C0 56.95 0 28.9 0 0 Z " fill="#FCF8F9" transform="translate(706,51)"/>
<path d="M0 0 C5.61 0 11.22 0 17 0 C17 10.89 17 21.78 17 33 C28.22 33 39.44 33 51 33 C51 22.11 51 11.22 51 0 C56.61 0 62.22 0 68 0 C68 28.05 68 56.1 68 85 C62.39 85 56.78 85 51 85 C51 72.46 51 59.92 51 47 C39.78 47 28.56 47 17 47 C17 59.54 17 72.08 17 85 C11.39 85 5.78 85 0 85 C0 56.95 0 28.9 0 0 Z " fill="#FCF9F9" transform="translate(860,51)"/>
<path d="M0 0 C5.61 0 11.22 0 17 0 C17 10.89 17 21.78 17 33 C28.22 33 39.44 33 51 33 C51 22.11 51 11.22 51 0 C56.61 0 62.22 0 68 0 C68 28.05 68 56.1 68 85 C62.39 85 56.78 85 51 85 C51 72.46 51 59.92 51 47 C39.78 47 28.56 47 17 47 C17 59.54 17 72.08 17 85 C11.39 85 5.78 85 0 85 C0 56.95 0 28.9 0 0 Z " fill="#FCF9F9" transform="translate(385,51)"/>
<path d="M0 0 C6.93 0 13.86 0 21 0 C26.84631559 11.58633454 32.4840567 23.25308371 38 35 C40.83271886 31.59323348 42.57778083 27.84783448 44.35546875 23.828125 C44.66196854 23.1457074 44.96846832 22.46328979 45.28425598 21.76019287 C46.25670075 19.59219563 47.22218395 17.42117933 48.1875 15.25 C48.84784931 13.77453453 49.50865172 12.29927175 50.16992188 10.82421875 C51.78606432 7.21882192 53.3927462 3.60942068 55 0 C61.6 0 68.2 0 75 0 C73.50438159 4.48685522 72.08143932 7.98979819 69.875 12.078125 C69.25512207 13.22885498 68.63524414 14.37958496 67.99658203 15.56518555 C67.67030823 16.16599945 67.34403442 16.76681335 67.00787354 17.38583374 C65.98377467 19.28001043 64.97472143 21.18160479 63.96826172 23.08520508 C61.12658237 28.43149535 58.31211933 33.72315415 54.8203125 38.68359375 C45.18677704 52.72199185 46.66905766 68.58915353 47 85 C41.06 85 35.12 85 29 85 C29.07863281 82.81246094 29.15726563 80.62492187 29.23828125 78.37109375 C29.64687584 59.54106036 27.823179 46.68873289 16.86669922 30.82861328 C13.48067741 25.69776726 10.68602649 20.24126718 7.8125 14.8125 C6.73653739 12.81854594 5.65977943 10.82502076 4.58203125 8.83203125 C3.00618588 5.90618449 1.4868421 2.97368421 0 0 Z " fill="#FCF6F6" transform="translate(60,51)"/>
<path d="M0 0 C15.51 0 31.02 0 47 0 C51.5 16.875 51.5 16.875 53 24 C53.18175781 23.27296875 53.36351562 22.5459375 53.55078125 21.796875 C56.27539062 10.8984375 56.27539062 10.8984375 59 0 C62.63 0 66.26 0 70 0 C71.65 7.92 73.3 15.84 75 24 C76.34244659 20.64388353 77.31912924 18.03681377 78.03515625 14.609375 C78.28942383 13.42214844 78.28942383 13.42214844 78.54882812 12.2109375 C78.8030957 10.99277344 78.8030957 10.99277344 79.0625 9.75 C80.8679803 1.1320197 80.8679803 1.1320197 82 0 C83.68608966 -0.07205511 85.37500659 -0.08386068 87.0625 -0.0625 C87.98160156 -0.05347656 88.90070313 -0.04445312 89.84765625 -0.03515625 C90.55792969 -0.02355469 91.26820313 -0.01195312 92 0 C89.63686304 9.84885029 87.03735537 19.62019959 84.3125 29.375 C84.00304443 30.48673584 83.69358887 31.59847168 83.37475586 32.74389648 C83.08221924 33.78489502 82.78968262 34.82589355 82.48828125 35.8984375 C82.22571533 36.83349121 81.96314941 37.76854492 81.69262695 38.73193359 C81 41 81 41 80 43 C76.7 43 73.4 43 70 43 C68.02 34.09 66.04 25.18 64 16 C62.39754679 23.76289596 62.39754679 23.76289596 60.79907227 31.52661133 C60.49827759 32.97716919 60.49827759 32.97716919 60.19140625 34.45703125 C59.98717041 35.44678955 59.78293457 36.43654785 59.57250977 37.45629883 C59 40 59 40 58 43 C54.7 43 51.4 43 48 43 C44.37 30.13 40.74 17.26 37 4 C36.67 5.32 36.34 6.64 36 8 C31.71 8 27.42 8 23 8 C23 19.55 23 31.1 23 43 C19.7 43 16.4 43 13 43 C13 31.45 13 19.9 13 8 C8.71 8 4.42 8 0 8 C0 5.36 0 2.72 0 0 Z " fill="#712D00" transform="translate(281,212)"/>
<path d="M0 0 C11 0 11 0 13.53393555 2.203125 C14.062854 3.20859375 14.59177246 4.2140625 15.13671875 5.25 C15.73291016 6.3328125 16.32910156 7.415625 16.94335938 8.53125 C17.51892578 9.6759375 18.09449219 10.820625 18.6875 12 C19.30560547 13.1446875 19.92371094 14.289375 20.56054688 15.46875 C22.07828281 18.29244477 23.54429041 21.14383402 25 24 C25.33 16.08 25.66 8.16 26 0 C29.3 0 32.6 0 36 0 C36 14.19 36 28.38 36 43 C32.37 43 28.74 43 25 43 C24.58113525 42.2479126 24.16227051 41.4958252 23.73071289 40.72094727 C22.17964254 37.9378088 20.62707856 35.15551068 19.07348633 32.3737793 C18.40068258 31.16838663 17.72847976 29.96265835 17.05688477 28.7565918 C16.09288084 27.02565339 15.12655352 25.29600957 14.16015625 23.56640625 C13.57886963 22.52427979 12.99758301 21.48215332 12.39868164 20.40844727 C11.20986135 18.12440597 11.20986135 18.12440597 10 17 C9.67 25.58 9.34 34.16 9 43 C6.03 43 3.06 43 0 43 C0 28.81 0 14.62 0 0 Z " fill="#712D00" transform="translate(778,212)"/>
<path d="M0 0 C4.66125 -0.103125 9.3225 -0.20625 14.125 -0.3125 C15.58437988 -0.35802002 17.04375977 -0.40354004 18.54736328 -0.45043945 C29.23030589 -0.5651904 29.23030589 -0.5651904 32.8671875 2.39453125 C36.24629166 6.5224845 36.32345547 9.23024216 36.30078125 14.4453125 C35.85478747 18.23336355 34.42806933 20.11666767 32 23 C32.48210937 23.53625 32.96421875 24.0725 33.4609375 24.625 C35.35822315 27.55279105 35.46047492 29.53631417 35.625 33 C35.81270305 36.57529622 36.1246951 39.49878039 37 43 C33.37 43 29.74 43 26 43 C25.86722656 42.00097656 25.73445313 41.00195312 25.59765625 39.97265625 C25.42105469 38.68230469 25.24445313 37.39195312 25.0625 36.0625 C24.88847656 34.77472656 24.71445312 33.48695313 24.53515625 32.16015625 C24.33837577 29.14533687 24.33837577 29.14533687 23 28 C18.67509147 27.5347708 14.34064463 27.29499527 10 27 C10 32.28 10 37.56 10 43 C6.7 43 3.4 43 0 43 C0 28.81 0 14.62 0 0 Z M10 8 C10 11.63 10 15.26 10 19 C17.76785462 19.40704276 17.76785462 19.40704276 25 17 C26.32745166 15.88741409 26.32745166 15.88741409 26.25 13.0625 C26.1675 12.051875 26.085 11.04125 26 10 C22.36804504 7.57869669 20.61650652 7.78977215 16.3125 7.875 C15.13300781 7.89304688 13.95351563 7.91109375 12.73828125 7.9296875 C11.38283203 7.96449219 11.38283203 7.96449219 10 8 Z " fill="#722D00" transform="translate(417,212)"/>
<path d="M0 0 C6.35504182 5.70685573 8.34544979 11.7848944 8.96484375 20.15234375 C9.05059949 27.09855895 7.42981552 32.55765521 3 38 C-1.55532747 42.55532747 -6.46319831 43.95478521 -12.75 44.03515625 C-19.99272624 43.63168916 -24.23956539 41.99047082 -29.25 36.5625 C-33.9472961 29.68431642 -34.55770568 22.41184667 -33.3125 14.3125 C-31.87221302 7.43753016 -28.88036534 2.92024356 -23 -1 C-15.65992917 -4.33639583 -6.97913519 -4.18748111 0 0 Z M-22 11 C-24.39491435 16.41458898 -24.30100795 21.32675222 -23 27 C-21.33885391 30.63870097 -19.5665621 33.11764778 -16 35 C-11.50560901 35.6658357 -9.57144572 35.35580582 -5.6875 32.9375 C-2.04825355 28.95971899 -1.0738899 25.90941475 -0.9375 20.5390625 C-1.23329586 14.38281125 -2.53637071 11.24589128 -7 7 C-13.12614676 3.93692662 -17.71054223 6.3115229 -22 11 Z " fill="#712C00" transform="translate(764,213)"/>
<path d="M0 0 C6.35504182 5.70685573 8.34544979 11.7848944 8.96484375 20.15234375 C9.05059949 27.09855895 7.42981552 32.55765521 3 38 C-1.55532747 42.55532747 -6.46319831 43.95478521 -12.75 44.03515625 C-19.99272624 43.63168916 -24.23956539 41.99047082 -29.25 36.5625 C-33.9472961 29.68431642 -34.55770568 22.41184667 -33.3125 14.3125 C-31.87221302 7.43753016 -28.88036534 2.92024356 -23 -1 C-15.65992917 -4.33639583 -6.97913519 -4.18748111 0 0 Z M-22 11 C-24.39491435 16.41458898 -24.30100795 21.32675222 -23 27 C-21.33885391 30.63870097 -19.5665621 33.11764778 -16 35 C-11.50560901 35.6658357 -9.57144572 35.35580582 -5.6875 32.9375 C-2.04825355 28.95971899 -1.0738899 25.90941475 -0.9375 20.5390625 C-1.23329586 14.38281125 -2.53637071 11.24589128 -7 7 C-13.12614676 3.93692662 -17.71054223 6.3115229 -22 11 Z " fill="#712C00" transform="translate(585,213)"/>
<path d="M0 0 C6.35504182 5.70685573 8.34544979 11.7848944 8.96484375 20.15234375 C9.05059949 27.09855895 7.42981552 32.55765521 3 38 C-1.55532747 42.55532747 -6.46319831 43.95478521 -12.75 44.03515625 C-19.99272624 43.63168916 -24.23956539 41.99047082 -29.25 36.5625 C-33.9472961 29.68431642 -34.55770568 22.41184667 -33.3125 14.3125 C-31.87221302 7.43753016 -28.88036534 2.92024356 -23 -1 C-15.65992917 -4.33639583 -6.97913519 -4.18748111 0 0 Z M-22 11 C-24.39491435 16.41458898 -24.30100795 21.32675222 -23 27 C-21.33885391 30.63870097 -19.5665621 33.11764778 -16 35 C-11.50560901 35.6658357 -9.57144572 35.35580582 -5.6875 32.9375 C-2.04825355 28.95971899 -1.0738899 25.90941475 -0.9375 20.5390625 C-1.23329586 14.38281125 -2.53637071 11.24589128 -7 7 C-13.12614676 3.93692662 -17.71054223 6.3115229 -22 11 Z " fill="#712C00" transform="translate(234,213)"/>
<path d="M0 0 C3.71819841 2.84798176 4.829002 4.19762475 5.8125 8.8125 C5.874375 9.864375 5.93625 10.91625 6 12 C2.7 12 -0.6 12 -4 12 C-4.66 10.68 -5.32 9.36 -6 8 C-8.22890995 6.88554502 -9.53055106 6.83519714 -12 6.8125 C-12.70125 6.79832031 -13.4025 6.78414062 -14.125 6.76953125 C-16.24524938 6.83487677 -16.24524938 6.83487677 -18 9 C-17.96265051 11.08185566 -17.96265051 11.08185566 -17 13 C-14.20922839 14.05701972 -11.62937297 14.85574482 -8.75 15.5625 C3.43444612 18.67538969 3.43444612 18.67538969 6.2890625 22.9140625 C8.01841331 27.9880918 7.6812247 32.5851487 5.375 37.375 C1.10680779 42.0924756 -3.45589582 43.51434237 -9.63671875 43.9921875 C-16.38796068 44.01450566 -21.69862368 42.45526798 -26.69140625 37.796875 C-28.97622673 34.65950956 -28.93417404 31.81790592 -29 28 C-25.7 28 -22.4 28 -19 28 C-18.71125 28.804375 -18.4225 29.60875 -18.125 30.4375 C-17.26737432 33.1326468 -17.26737432 33.1326468 -15 34 C-13.50243129 34.09499503 -12.00057068 34.12987198 -10.5 34.125 C-9.7059375 34.12757813 -8.911875 34.13015625 -8.09375 34.1328125 C-5.94081466 34.13277996 -5.94081466 34.13277996 -4 33 C-4 31.35 -4 29.7 -4 28 C-5.29093133 27.56033498 -6.58280836 27.12344701 -7.875 26.6875 C-8.69097656 26.41164062 -9.50695312 26.13578125 -10.34765625 25.8515625 C-12.98505986 25.00479669 -15.63896503 24.28550648 -18.3125 23.5625 C-22.15777106 22.42802562 -24.54168564 21.31338022 -27 18 C-28.88400918 14.23198163 -28.63638788 10.09368742 -28 6 C-25.77130866 1.63017306 -23.05217392 -0.56 -18.5625 -2.4375 C-11.64034479 -3.53047187 -6.22658739 -3.25035694 0 0 Z " fill="#712C00" transform="translate(849,213)"/>
<path d="M0 0 C3.71819841 2.84798176 4.829002 4.19762475 5.8125 8.8125 C5.874375 9.864375 5.93625 10.91625 6 12 C2.7 12 -0.6 12 -4 12 C-4.66 10.68 -5.32 9.36 -6 8 C-8.22890995 6.88554502 -9.53055106 6.83519714 -12 6.8125 C-12.70125 6.79832031 -13.4025 6.78414062 -14.125 6.76953125 C-16.24524938 6.83487677 -16.24524938 6.83487677 -18 9 C-17.96265051 11.08185566 -17.96265051 11.08185566 -17 13 C-14.20922839 14.05701972 -11.62937297 14.85574482 -8.75 15.5625 C3.43444612 18.67538969 3.43444612 18.67538969 6.2890625 22.9140625 C8.01841331 27.9880918 7.6812247 32.5851487 5.375 37.375 C1.10680779 42.0924756 -3.45589582 43.51434237 -9.63671875 43.9921875 C-16.38796068 44.01450566 -21.69862368 42.45526798 -26.69140625 37.796875 C-28.97622673 34.65950956 -28.93417404 31.81790592 -29 28 C-25.7 28 -22.4 28 -19 28 C-18.71125 28.804375 -18.4225 29.60875 -18.125 30.4375 C-17.26737432 33.1326468 -17.26737432 33.1326468 -15 34 C-13.50243129 34.09499503 -12.00057068 34.12987198 -10.5 34.125 C-9.7059375 34.12757813 -8.911875 34.13015625 -8.09375 34.1328125 C-5.94081466 34.13277996 -5.94081466 34.13277996 -4 33 C-4 31.35 -4 29.7 -4 28 C-5.29093133 27.56033498 -6.58280836 27.12344701 -7.875 26.6875 C-8.69097656 26.41164062 -9.50695312 26.13578125 -10.34765625 25.8515625 C-12.98505986 25.00479669 -15.63896503 24.28550648 -18.3125 23.5625 C-22.15777106 22.42802562 -24.54168564 21.31338022 -27 18 C-28.88400918 14.23198163 -28.63638788 10.09368742 -28 6 C-25.77130866 1.63017306 -23.05217392 -0.56 -18.5625 -2.4375 C-11.64034479 -3.53047187 -6.22658739 -3.25035694 0 0 Z " fill="#712C00" transform="translate(540,213)"/>
<path d="M0 0 C3.71819841 2.84798176 4.829002 4.19762475 5.8125 8.8125 C5.874375 9.864375 5.93625 10.91625 6 12 C2.7 12 -0.6 12 -4 12 C-4.66 10.68 -5.32 9.36 -6 8 C-8.22890995 6.88554502 -9.53055106 6.83519714 -12 6.8125 C-12.70125 6.79832031 -13.4025 6.78414062 -14.125 6.76953125 C-16.24524938 6.83487677 -16.24524938 6.83487677 -18 9 C-17.96265051 11.08185566 -17.96265051 11.08185566 -17 13 C-14.20922839 14.05701972 -11.62937297 14.85574482 -8.75 15.5625 C3.43444612 18.67538969 3.43444612 18.67538969 6.2890625 22.9140625 C8.01841331 27.9880918 7.6812247 32.5851487 5.375 37.375 C1.10680779 42.0924756 -3.45589582 43.51434237 -9.63671875 43.9921875 C-16.38796068 44.01450566 -21.69862368 42.45526798 -26.69140625 37.796875 C-28.97622673 34.65950956 -28.93417404 31.81790592 -29 28 C-25.7 28 -22.4 28 -19 28 C-18.71125 28.804375 -18.4225 29.60875 -18.125 30.4375 C-17.26737432 33.1326468 -17.26737432 33.1326468 -15 34 C-13.50243129 34.09499503 -12.00057068 34.12987198 -10.5 34.125 C-9.7059375 34.12757813 -8.911875 34.13015625 -8.09375 34.1328125 C-5.94081466 34.13277996 -5.94081466 34.13277996 -4 33 C-4 31.35 -4 29.7 -4 28 C-5.29093133 27.56033498 -6.58280836 27.12344701 -7.875 26.6875 C-8.69097656 26.41164062 -9.50695312 26.13578125 -10.34765625 25.8515625 C-12.98505986 25.00479669 -15.63896503 24.28550648 -18.3125 23.5625 C-22.15777106 22.42802562 -24.54168564 21.31338022 -27 18 C-28.88400918 14.23198163 -28.63638788 10.09368742 -28 6 C-25.77130866 1.63017306 -23.05217392 -0.56 -18.5625 -2.4375 C-11.64034479 -3.53047187 -6.22658739 -3.25035694 0 0 Z " fill="#712C00" transform="translate(189,213)"/>
<path d="M0 0 C10.89 0 21.78 0 33 0 C33 2.64 33 5.28 33 8 C25.41 8 17.82 8 10 8 C10 10.64 10 13.28 10 16 C16.93 16 23.86 16 31 16 C31 18.97 31 21.94 31 25 C24.07 25 17.14 25 10 25 C10 28.3 10 31.6 10 35 C17.92 35 25.84 35 34 35 C34 37.64 34 40.28 34 43 C22.78 43 11.56 43 0 43 C0 28.81 0 14.62 0 0 Z " fill="#722D00" transform="translate(461,212)"/>
<path d="M0 0 C3.3 0 6.6 0 10 0 C10.01981934 0.8878418 10.03963867 1.77568359 10.06005859 2.69042969 C10.13828232 5.99311334 10.22497885 9.29535064 10.31738281 12.59765625 C10.35560024 14.02530398 10.39046572 15.45304563 10.421875 16.88085938 C10.46768401 18.93653868 10.5256498 20.99157554 10.5859375 23.046875 C10.6173584 24.28276367 10.6487793 25.51865234 10.68115234 26.79199219 C10.97881277 29.78682982 11.33196569 31.52944185 13 34 C15.79870027 35.39935013 17.90498792 35.25265405 21 35 C22.80412923 33.99861155 22.80412923 33.99861155 24 32 C24.3307063 29.49271968 24.4882718 27.21862613 24.51171875 24.70703125 C24.52966995 24.00100266 24.54762115 23.29497406 24.56611633 22.56755066 C24.62023178 20.31592759 24.65411722 18.06451657 24.6875 15.8125 C24.72067219 14.28447569 24.75516177 12.75647937 24.79101562 11.22851562 C24.87595825 7.48583011 24.94276248 3.74320759 25 0 C28.63 0 32.26 0 36 0 C36.05856225 4.47911082 36.09378482 8.9581217 36.125 13.4375 C36.14175781 14.69755859 36.15851562 15.95761719 36.17578125 17.25585938 C36.25975917 33.33763168 36.25975917 33.33763168 32.1875 39.9375 C27.63688796 44.22807706 22.07728108 44.89837323 16 45 C9.99640169 44.4105558 6.14752045 42.34502142 2 38 C0.02805514 33.38151957 -0.23524528 29.40565955 -0.1953125 24.4140625 C-0.19106766 23.36138687 -0.19106766 23.36138687 -0.18673706 22.28744507 C-0.17562512 20.06644972 -0.15053834 17.84587155 -0.125 15.625 C-0.11495854 14.11068295 -0.10583473 12.59635951 -0.09765625 11.08203125 C-0.07571554 7.38788742 -0.04124875 3.69398449 0 0 Z " fill="#6F2C00" transform="translate(636,212)"/>
<path d="M0 0 C3.96 0 7.92 0 12 0 C14.13823605 5.96241814 16.27442712 11.9255633 18.40869141 17.8894043 C19.13566232 19.91988124 19.86320056 21.95015515 20.59130859 23.98022461 C21.63526775 26.89123725 22.67721212 29.80296406 23.71875 32.71484375 C24.04685669 33.6283812 24.37496338 34.54191864 24.7130127 35.48313904 C25.01332397 36.32393509 25.31363525 37.16473114 25.62304688 38.03100586 C25.88952026 38.77491074 26.15599365 39.51881561 26.43054199 40.28526306 C27 42 27 42 27 43 C23.37 43 19.74 43 16 43 C14 39 14 39 14 35 C8.72 35 3.44 35 -2 35 C-2.66 37.64 -3.32 40.28 -4 43 C-7.63 43 -11.26 43 -15 43 C-12.68142365 34.92441436 -9.95426467 27.01925475 -7.12890625 19.11083984 C-6.36687893 16.97726206 -5.60895625 14.84225777 -4.8515625 12.70703125 C-1.14617361 2.29234722 -1.14617361 2.29234722 0 0 Z M5 13 C3.68 17.29 2.36 21.58 1 26 C3.97 26 6.94 26 10 26 C9.71125 24.5975 9.4225 23.195 9.125 21.75 C8.96257812 20.96109375 8.80015625 20.1721875 8.6328125 19.359375 C8.00849925 17.03168856 7.15161458 15.10968048 6 13 C5.67 13 5.34 13 5 13 Z " fill="#712C00" transform="translate(386,212)"/>
<path d="M0 0 C10.56 0 21.12 0 32 0 C32 2.64 32 5.28 32 8 C24.74 8 17.48 8 10 8 C10 10.97 10 13.94 10 17 C16.27 17 22.54 17 29 17 C29 19.64 29 22.28 29 25 C22.73 25 16.46 25 10 25 C10 30.94 10 36.88 10 43 C6.7 43 3.4 43 0 43 C0 28.81 0 14.62 0 0 Z " fill="#722D00" transform="translate(248,212)"/>
<path d="M0 0 C11.88 0 23.76 0 36 0 C36 2.64 36 5.28 36 8 C31.71 8 27.42 8 23 8 C23 19.55 23 31.1 23 43 C19.7 43 16.4 43 13 43 C13 31.45 13 19.9 13 8 C8.71 8 4.42 8 0 8 C0 5.36 0 2.72 0 0 Z " fill="#722D00" transform="translate(675,212)"/>
<path d="M0 0 C3.3 0 6.6 0 10 0 C10 11.55 10 23.1 10 35 C16.93 35 23.86 35 31 35 C31 37.64 31 40.28 31 43 C20.77 43 10.54 43 0 43 C0 28.81 0 14.62 0 0 Z " fill="#722D00" transform="translate(599,212)"/>
<path d="M0 0 C3.3 0 6.6 0 10 0 C10 14.19 10 28.38 10 43 C6.7 43 3.4 43 0 43 C0 28.81 0 14.62 0 0 Z " fill="#722D00" transform="translate(714,212)"/>
<path d="M0 0 C2.08641446 3.12962169 3.01969216 5.77445417 4.1640625 9.34765625 C4.56367188 10.59224609 4.96328125 11.83683594 5.375 13.11914062 C5.57996094 13.7660083 5.78492188 14.41287598 5.99609375 15.0793457 C6.6244162 17.06065907 7.26084704 19.03923022 7.8984375 21.01757812 C11 30.73010095 11 30.73010095 11 33 C4.07 33 -2.86 33 -10 33 C-9.33276467 27.6621174 -8.83479303 23.87728485 -7.1875 19.00390625 C-6.65769531 17.42512695 -6.65769531 17.42512695 -6.1171875 15.81445312 C-5.74851563 14.74130859 -5.37984375 13.66816406 -5 12.5625 C-4.63132813 11.46228516 -4.26265625 10.36207031 -3.8828125 9.22851562 C-1.14756944 1.14756944 -1.14756944 1.14756944 0 0 Z " fill="#EE272F" transform="translate(260,71)"/>
</svg>
